# xmcd
#
# Track frame offsets:
#	150
#	14377
#	28170
#	42075
#	56013
#	70296
#	84809
#	99394
#	113672
#	126686
#	139987
#	153147
#	165633
#	178115
#	190971
#	203114
#	216263
#	228697
#	241902
#	254505
#	267668
#	281331
#	294568
#
# Disc length: 4101 seconds
# Revision: 1
# Processed by: cddbd v1.5.2PL0 Copyright (c) Steve Scherf et al.
# Submitted via: dBpowerAMP V12.0
#
DISCID=59100317
DTITLE=Curtis Jones - Volume 1, (1937 - 1938)
DYEAR=2008
DGENRE=Blues
TTITLE0=Decoration Day Blues
TTITLE1=Blues And Trouble (take 1)
TTITLE2=Blues And Trouble (take 2)
TTITLE3=Lonesome Bedroom Blues
TTITLE4=You Got Good Business
TTITLE5=Drinking And Thinking Blues
TTITLE6=Shoolmate Blues
TTITLE7=Bad Avenue Blues
TTITLE8=Good Old Easy Street
TTITLE9=Blues And Trouble(take 3)
TTITLE10=Little Jivin' Woman
TTITLE11=My Baby's Getting Buggish
TTITLE12=Down In The Slums
TTITLE13=Let Me Be Your Playmante
TTITLE14=Highway 51 Blues
TTITLE15=It's A Low Down Dirty Shame
TTITLE16=Yours All Alone
TTITLE17=Palace Blues(take 2)
TTITLE18=Reckless Life Blues
TTITLE19=Bull And Cow Blues
TTITLE20=Love Season Blues
TTITLE21=Palace Blues(take 4)
TTITLE22=Lonesome Bedroom Blues No. 2
EXTD=
EXTT0=
EXTT1=
EXTT2=
EXTT3=
EXTT4=
EXTT5=
EXTT6=
EXTT7=
EXTT8=
EXTT9=
EXTT10=
EXTT11=
EXTT12=
EXTT13=
EXTT14=
EXTT15=
EXTT16=
EXTT17=
EXTT18=
EXTT19=
EXTT20=
EXTT21=
EXTT22=
PLAYORDER=
